<svg width="40" height="40" viewBox="0 0 40 40" fill="none" xmlns="http://www.w3.org/2000/svg">
<path d="M20.0042 0V19.9958H0L20.0042 40H40V19.9958L20.0042 0Z" fill="black"/>
<path d="M3 13.8254L6.15767 5.46094H7.53496L10.6674 13.8254H9.26496L8.46714 11.6251H5.10792L4.3101 13.8254H3ZM8.07243 10.6006L6.77913 7.06497H6.76233L5.45224 10.6006H8.07243Z" fill="black"/>
<path d="M11.0553 5.44141H14.0366C15.9429 5.44141 16.7828 6.21403 16.7828 7.54932C16.7828 8.43952 16.3377 9.10296 15.4139 9.39689V9.44728C16.3964 9.63204 17.1439 10.2199 17.1439 11.4628C17.1439 12.8653 16.1613 13.8395 14.2633 13.8395H11.0469V5.44141H11.0553ZM13.8098 9.05257C14.7084 9.05257 15.4727 8.73345 15.4727 7.74248C15.4727 6.79349 14.8764 6.48277 13.8686 6.48277H12.3738V9.06097H13.8098V9.05257ZM14.087 12.8317C15.1367 12.8317 15.775 12.353 15.775 11.3788C15.775 10.3879 15.0612 9.98476 13.9862 9.98476H12.3738V12.8317H14.087Z" fill="black"/>
<path d="M0 0V19.9958H19.9958V0H0ZM19.4163 19.4163H0.587865V0.587864H19.4163V19.4163Z" fill="black"/>
</svg>
