<svg xmlns="http://www.w3.org/2000/svg" width="183.377" height="22" viewBox="0 0 183.377 22">
  <g id="그룹_21686" data-name="그룹 21686" transform="translate(-383.85 -1541)">
    <g id="그룹_21679" data-name="그룹 21679" transform="translate(401.841 1541.329)">
      <path id="패스_7704" data-name="패스 7704" d="M410.486,1550.636v-9.218h-3.846V1562.7h3.846v-8.462H419.1v-3.606Z" transform="translate(-406.641 -1541.417)" fill="#1302e6"/>
      <path id="패스_7705" data-name="패스 7705" d="M424.074,1541.417V1562.7h3.845v-21.286Z" transform="translate(-410.312 -1541.417)" fill="#1302e6"/>
    </g>
    <path id="패스_7706" data-name="패스 7706" d="M488.253,1557.37a10.251,10.251,0,0,1-1.621,2.307,10.837,10.837,0,0,1-2.128,1.77,10.1,10.1,0,0,1-2.528,1.147,9.769,9.769,0,0,1-2.815.406,9.554,9.554,0,0,1-4.038-.871,10.6,10.6,0,0,1-3.31-2.366,11.256,11.256,0,0,1-2.239-3.5,11.454,11.454,0,0,1,0-8.532,11.285,11.285,0,0,1,2.239-3.5,10.6,10.6,0,0,1,3.31-2.365,9.553,9.553,0,0,1,4.038-.871,9.79,9.79,0,0,1,2.815.406,10.119,10.119,0,0,1,2.528,1.146,10.894,10.894,0,0,1,2.128,1.771,10.567,10.567,0,0,1,1.621,2.278l-3.6,1.539a8.055,8.055,0,0,0-1.03-1.306,7.6,7.6,0,0,0-1.3-1.074,6.472,6.472,0,0,0-1.512-.725,5.249,5.249,0,0,0-1.647-.262,5.678,5.678,0,0,0-2.569.6,6.828,6.828,0,0,0-2.074,1.582,7.653,7.653,0,0,0-1.4,2.307,7.5,7.5,0,0,0,0,5.5,7.7,7.7,0,0,0,1.4,2.293,6.822,6.822,0,0,0,2.074,1.582,5.677,5.677,0,0,0,2.569.6,5.269,5.269,0,0,0,1.647-.261,6.5,6.5,0,0,0,1.512-.726,7.214,7.214,0,0,0,1.3-1.089,8.629,8.629,0,0,0,1.03-1.321Z" transform="translate(-17.881 0)" fill="#1302e6"/>
    <path id="패스_7707" data-name="패스 7707" d="M602.719,1554.583a5.832,5.832,0,0,0-.948-1.538,4.606,4.606,0,0,0-1.3-1.059,3.714,3.714,0,0,0-1.47-.449,2.422,2.422,0,0,0,1.318-.452,4.137,4.137,0,0,0,1.03-1.034,5.367,5.367,0,0,0,.673-1.342,4.271,4.271,0,0,0,.248-1.371,7.972,7.972,0,0,0-.467-2.96,4.242,4.242,0,0,0-3.132-2.712,10.083,10.083,0,0,0-2.28-.248h-8.844V1562.7h9.284a8.981,8.981,0,0,0,2.431-.319,4.9,4.9,0,0,0,3.337-3,7.75,7.75,0,0,0,.494-2.944A4.685,4.685,0,0,0,602.719,1554.583Zm-3.667,2.668a3.552,3.552,0,0,1-.522.93,2.561,2.561,0,0,1-.77.669,1.871,1.871,0,0,1-.934.247h-5.439v-14.074h5a1.6,1.6,0,0,1,.783.2,2.3,2.3,0,0,1,.646.527,2.633,2.633,0,0,1,.6,1.667,3.165,3.165,0,0,1-.152.95,2.791,2.791,0,0,1-.439.862,2.227,2.227,0,0,1-.714.614,2.053,2.053,0,0,1-1,.234h-3.232v3.606h3.533a2.867,2.867,0,0,1,2.074.727,2.4,2.4,0,0,1,.755,1.8A2.909,2.909,0,0,1,599.052,1557.251Z" transform="translate(-42.899 -0.088)" fill="#1302e6"/>
    <circle id="타원_330" data-name="타원 330" cx="2.403" cy="2.403" r="2.403" transform="translate(562.421 1557.772)" fill="#1302e6"/>
    <g id="그룹_21680" data-name="그룹 21680" transform="translate(423.815 1541.329)">
      <path id="패스_7708" data-name="패스 7708" d="M449.283,1541.417h-14.8V1562.7h14.8v-3.664H438.323v-14.016h10.959Z" transform="translate(-434.478 -1541.417)" fill="#1302e6"/>
      <rect id="사각형_24841" data-name="사각형 24841" width="8.407" height="3.488" transform="translate(5.162 8.843)" fill="#1302e6"/>
    </g>
    <g id="그룹_21681" data-name="그룹 21681" transform="translate(473.339 1541.329)">
      <path id="패스_7709" data-name="패스 7709" d="M512.019,1541.417h-14.8V1562.7h14.8v-3.664H501.059v-14.016h10.959Z" transform="translate(-497.214 -1541.417)" fill="#1302e6"/>
      <rect id="사각형_24842" data-name="사각형 24842" width="8.407" height="3.488" transform="translate(5.162 8.843)" fill="#1302e6"/>
    </g>
    <g id="그룹_21682" data-name="그룹 21682" transform="translate(525.884 1541.329)">
      <path id="패스_7710" data-name="패스 7710" d="M578.582,1541.417h-14.8V1562.7h14.8v-3.664H567.623v-14.016h10.959Z" transform="translate(-563.777 -1541.417)" fill="#1302e6"/>
      <rect id="사각형_24843" data-name="사각형 24843" width="8.407" height="3.488" transform="translate(5.162 8.843)" fill="#1302e6"/>
    </g>
    <g id="그룹_21683" data-name="그룹 21683" transform="translate(492.099 1541.329)">
      <rect id="사각형_24844" data-name="사각형 24844" width="9.498" height="3.406" transform="translate(4.978 17.88)" fill="#1302e6"/>
      <rect id="사각형_24845" data-name="사각형 24845" width="3.846" height="21.286" fill="#1302e6"/>
    </g>
    <g id="그룹_21684" data-name="그룹 21684" transform="translate(508.992 1541.329)">
      <rect id="사각형_24846" data-name="사각형 24846" width="9.498" height="3.406" transform="translate(4.978 17.88)" fill="#1302e6"/>
      <rect id="사각형_24847" data-name="사각형 24847" width="3.846" height="21.286" fill="#1302e6"/>
    </g>
    <g id="그룹_21685" data-name="그룹 21685" transform="translate(383.85 1541.329)">
      <rect id="사각형_24848" data-name="사각형 24848" width="4.599" height="3.406" transform="translate(10.756)" fill="#1302e6"/>
      <path id="패스_7711" data-name="패스 7711" d="M393.469,1541.417H383.85v3.606h5.768v17.68h3.851Z" transform="translate(-383.85 -1541.417)" fill="#1302e6"/>
    </g>
  </g>
</svg>
