<svg xmlns="http://www.w3.org/2000/svg" width="95.365" height="76.126" viewBox="0 0 95.365 76.126">
  <defs>
    <style>
      .cls-1 {
        fill: #fff;
      }

      .cls-1, .cls-2, .cls-3 {
        stroke: #888;
        stroke-linecap: round;
        stroke-linejoin: round;
        stroke-width: 2px;
      }

      .cls-2 {
        fill: #d7d1ff;
      }

      .cls-3 {
        fill: none;
      }
    </style>
  </defs>
  <g id="그룹_21747" data-name="그룹 21747" transform="translate(-299 -311.252)">
    <path id="패스_9347" data-name="패스 9347" class="cls-1" d="M306.273,338.836A6.274,6.274,0,0,0,300,345.109v20.817a6.274,6.274,0,0,0,6.273,6.273h3.987a.764.764,0,0,1,.764.763v8.187a.763.763,0,0,0,1.3.54l9.268-9.266a.76.76,0,0,1,.539-.224h11.318a6.274,6.274,0,0,0,6.274-6.273v-27.09Z" transform="translate(0 4.441)"/>
    <path id="패스_9348" data-name="패스 9348" class="cls-2" d="M337.395,312.252h41.544a9.82,9.82,0,0,1,9.82,9.82v32.584a9.82,9.82,0,0,1-9.82,9.82h-4.888a1.2,1.2,0,0,0-1.2,1.2v12.816a1.2,1.2,0,0,1-2.04.845L356.31,364.826a1.2,1.2,0,0,0-.846-.35h-18.07a9.82,9.82,0,0,1-9.82-9.82V322.072A9.82,9.82,0,0,1,337.395,312.252Z" transform="translate(4.607 0)"/>
    <path id="패스_9349" data-name="패스 9349" class="cls-1" d="M364.272,325.827l-10.319,10.319a1.217,1.217,0,0,1-1.72,0l-4.852-4.852a1.216,1.216,0,0,0-1.72,0L341.2,335.76a1.217,1.217,0,0,0,0,1.72l9.781,9.8a2.978,2.978,0,0,0,4.214,0l15.267-15.268a1.216,1.216,0,0,0,0-1.72l-4.465-4.464A1.218,1.218,0,0,0,364.272,325.827Z" transform="translate(6.823 2.209)"/>
    <path id="패스_9350" data-name="패스 9350" class="cls-3" d="M310.618,352.8l5.231,5.231,7.96-7.96" transform="translate(1.774 6.319)"/>
  </g>
</svg>
