<svg xmlns="http://www.w3.org/2000/svg" width="109.536" height="97.608" viewBox="0 0 109.536 97.608">
  <defs>
    <style>
      .cls-1 {
        fill: #fff;
      }

      .cls-2, .cls-4 {
        fill: #d7d1ff;
      }

      .cls-3, .cls-5 {
        fill: none;
      }

      .cls-3, .cls-4, .cls-5 {
        stroke: #888;
        stroke-linecap: round;
        stroke-width: 2px;
      }

      .cls-3, .cls-4 {
        stroke-linejoin: round;
      }
    </style>
  </defs>
  <g id="그룹_21749" data-name="그룹 21749" transform="translate(-425.985 -296.94)">
    <path id="패스_9354" data-name="패스 9354" class="cls-1" d="M462.064,362.826a18.673,18.673,0,0,1,2.733-2.914c-5.339-3.39-18.781-11.818-24.1-12.513a6.458,6.458,0,0,0-6.2,2.477c6.232,1.819,14.579,6.183,22.285,10.213C458.629,361.054,460.4,361.977,462.064,362.826Z" transform="translate(1.687 11.338)"/>
    <path id="패스_9355" data-name="패스 9355" class="cls-1" d="M466.824,357.342l-.592-.435c-6.115-4.5-13.724-10.09-17.427-11.05a5.58,5.58,0,0,0-6,1.824c5.832,2.3,14.453,7.562,21.1,11.783C464.8,358.744,465.778,358.033,466.824,357.342Z" transform="translate(3.556 10.955)"/>
    <path id="패스_9356" data-name="패스 9356" class="cls-1" d="M466.1,356.724c.828-.514,1.7-1.011,2.583-1.494-3.871-3.64-8.216-7.689-11.846-9.338-3.086-1.406-4.9-.342-5.949.435,4.115,2.242,9.6,6.277,14.244,9.689Z" transform="translate(5.376 10.86)"/>
    <path id="패스_9357" data-name="패스 9357" class="cls-1" d="M512.848,346.23c-3.911-1.286-8.617-2.515-13.817-1.828-3.679.483-6.9,2.555-10.3,4.751a47.843,47.843,0,0,1-8.029,4.46,58.08,58.08,0,0,0-5.461,2.537l-.013.006c-7.59,4.025-12.691,9.007-11.79,12a2.791,2.791,0,0,0,1.356,1.811c2.071,1.065,6.376-.408,11.829-2.27,1.3-.445,2.539-.886,3.746-1.314,5.872-2.087,10.942-3.891,18.175-4.466a.618.618,0,0,1,.659.561.609.609,0,0,1-.561.659c-7.073.563-12.073,2.341-17.863,4.4-1.211.431-2.456.873-3.76,1.318-4.391,1.5-7.882,2.7-10.429,2.7a5.088,5.088,0,0,1-2.356-.492,4,4,0,0,1-1.97-2.547,5.036,5.036,0,0,1,.7-3.945c-1.637-.837-3.369-1.74-5.178-2.686-10.763-5.629-25.5-13.342-29.24-10.284a2.332,2.332,0,0,0-1.039,2.047c.37,4.008,11.856,10.638,24.617,17.652,13.377,7.355,23.346,11.194,28.9,11,5.392-.152,10.12-1.436,16.316-4.433.853-.413,1.85-.935,2.931-1.5,1.556-.813,3.317-1.735,5.064-2.548,5.069-2.361,10.011-2.693,15.242-3.045.8-.055,1.614-.113,2.435-.175v-21.4a56.052,56.052,0,0,1-8.205-2.306Z" transform="translate(0.113 10.635)"/>
    <circle id="타원_331" data-name="타원 331" class="cls-2" cx="21.684" cy="21.684" r="21.684" transform="translate(450.382 327.605) rotate(-45)"/>
    <path id="패스_9358" data-name="패스 9358" class="cls-3" d="M523.739,370.043c-6.451.517-12.134.461-18.031,3.206-2.939,1.368-5.9,3.033-7.988,4.045-5.928,2.867-10.738,4.33-16.565,4.495-7.16.2-19.636-5.815-29.213-11.079-18.416-10.125-28.7-16.589-23.67-20.71,4.748-3.889,23.513,7.033,35.681,13.2" transform="translate(0 11.755)"/>
    <path id="패스_9359" data-name="패스 9359" class="cls-3" d="M492.122,362.635c-8.64.688-14.208,3.163-21.772,5.749-7.737,2.646-12.68,4.333-13.969.058-1.357-4.5,7.9-11.364,17.621-15.284,7.006-2.825,11.955-8.393,18.479-9.25,5.347-.7,10.222.581,14.089,1.853,4.579,1.508,7.1,2.455,10.588,3.028" transform="translate(6.581 10.523)"/>
    <path id="패스_9360" data-name="패스 9360" class="cls-3" d="M433.7,350.345a7.063,7.063,0,0,1,7.25-3.444c5.232.686,17.674,8.361,25.063,13.057" transform="translate(1.509 11.225)"/>
    <path id="패스_9361" data-name="패스 9361" class="cls-3" d="M442.024,348.084a6.2,6.2,0,0,1,7.111-2.707c4.1,1.063,12.648,7.493,18.953,12.119" transform="translate(3.381 10.842)"/>
    <path id="패스_9362" data-name="패스 9362" class="cls-3" d="M449.923,346.5c.581-.111,2.777-3.157,7.391-1.06,3.915,1.779,8.47,6.118,12.634,10.033" transform="translate(5.158 10.749)"/>
    <path id="패스_9363" data-name="패스 9363" class="cls-3" d="M489.051,309.236a21.715,21.715,0,1,0,7.587,13.375" transform="translate(5.928 1.633)"/>
    <path id="사각형_24896" data-name="사각형 24896" class="cls-4" d="M2.3,0H8.484a2.3,2.3,0,0,1,2.3,2.3V28.141a2.3,2.3,0,0,1-2.3,2.3H2.3a2.3,2.3,0,0,1-2.3-2.3V2.3A2.3,2.3,0,0,1,2.3,0Z" transform="translate(523.739 355.388)"/>
    <line id="선_179" data-name="선 179" class="cls-3" x2="15.729" y2="15.729" transform="translate(473.409 320.248)"/>
    <path id="패스_9364" data-name="패스 9364" class="cls-5" d="M0,15.729,15.729,0" transform="translate(473.409 320.248)"/>
  </g>
</svg>
