<svg id="구성_요소_14_2" data-name="구성 요소 14 – 2" xmlns="http://www.w3.org/2000/svg" width="42" height="42" viewBox="0 0 42 42">
  <defs>
    <style>
      .cls-1 {
        fill: #5d12fa;
      }
    </style>
  </defs>
  <path id="패스_7717" data-name="패스 7717" class="cls-1" d="M201.3,221.273a21,21,0,1,0,6.151,14.849A20.863,20.863,0,0,0,201.3,221.273Zm2.6,14.828a17.451,17.451,0,1,1-17.431-17.431A17.471,17.471,0,0,1,203.9,236.1Z" transform="translate(-165.451 -215.122)"/>
  <path id="패스_7718" data-name="패스 7718" class="cls-1" d="M341.273,406.126l-9.8,9.8-3.133-3.133a2.27,2.27,0,0,0-3.21,0h0a2.269,2.269,0,0,0,0,3.21l4.738,4.738a2.27,2.27,0,0,0,3.21,0l11.4-11.4a2.27,2.27,0,0,0,0-3.21h0A2.27,2.27,0,0,0,341.273,406.126Z" transform="translate(-312.633 -391.344)"/>
</svg>
