<svg xmlns="http://www.w3.org/2000/svg" xmlns:xlink="http://www.w3.org/1999/xlink" width="40" height="40" viewBox="0 0 40 40">
  <defs>
    <clipPath id="clip-path">
      <rect id="사각형_24806" data-name="사각형 24806" width="40" height="40" fill="#aaa"/>
    </clipPath>
  </defs>
  <g id="마스크_그룹_27" data-name="마스크 그룹 27" clip-path="url(#clip-path)">
    <g id="verified" transform="translate(3.125 0)">
      <path id="패스_7691" data-name="패스 7691" d="M35.912,6.477,20.6.119a1.562,1.562,0,0,0-1.2,0L4.088,6.477A1.563,1.563,0,0,0,3.125,7.92v7.729A26.167,26.167,0,0,0,19.41,39.884a1.563,1.563,0,0,0,1.181,0A26.167,26.167,0,0,0,36.875,15.649V7.92A1.562,1.562,0,0,0,35.912,6.477ZM33.75,15.649A23.047,23.047,0,0,1,20,36.74,23.048,23.048,0,0,1,6.25,15.649V8.963L20,3.254,33.75,8.963ZM18.273,20.915,24.989,14.2a1.562,1.562,0,1,1,2.21,2.21L19.378,24.23a1.562,1.562,0,0,1-2.21,0L12.8,19.863a1.562,1.562,0,0,1,2.21-2.21Z" transform="translate(-3.125 0)" fill="#aaa"/>
    </g>
  </g>
</svg>
