<svg xmlns="http://www.w3.org/2000/svg" width="20" height="20" viewBox="0 0 20 20">
  <g id="그룹_21846" data-name="그룹 21846" transform="translate(-1316 -171.291)">
    <text id="_" data-name="?" transform="translate(1322.779 185.291)" fill="#aaa" font-size="13" font-family="Helvetica" letter-spacing="-0.05em"><tspan x="0" y="0">?</tspan></text>
    <g id="패스_9689" data-name="패스 9689" transform="translate(1316 171.291)" fill="none">
      <path d="M10,0A10,10,0,1,1,0,10,10,10,0,0,1,10,0Z" stroke="none"/>
      <path d="M 10 1 C 5.037380218505859 1 1 5.037380218505859 1 10 C 1 14.96261978149414 5.037380218505859 19 10 19 C 14.96261978149414 19 19 14.96261978149414 19 10 C 19 5.037380218505859 14.96261978149414 1 10 1 M 10 0 C 15.52285003662109 0 20 4.477149963378906 20 10 C 20 15.52285003662109 15.52285003662109 20 10 20 C 4.477149963378906 20 0 15.52285003662109 0 10 C 0 4.477149963378906 4.477149963378906 0 10 0 Z" stroke="none" fill="#aaa"/>
    </g>
  </g>
</svg>
