<svg xmlns="http://www.w3.org/2000/svg" xmlns:xlink="http://www.w3.org/1999/xlink" width="21" height="21" viewBox="0 0 21 21">
  <defs>
    <style>
      .cls-1 {
        fill: #0052db;
      }

      .cls-2 {
        clip-path: url(#clip-path);
      }

      .cls-3 {
        fill: #fff;
      }
    </style>
    <clipPath id="clip-path">
      <circle id="타원_156" data-name="타원 156" class="cls-1" cx="10.5" cy="10.5" r="10.5" transform="translate(0.786 0.786)"/>
    </clipPath>
  </defs>
  <g id="마스크_그룹_12" data-name="마스크 그룹 12" class="cls-2" transform="translate(-0.786 -0.786)">
    <g id="camera" transform="translate(4.043 5.201)">
      <g id="그룹_547" data-name="그룹 547" transform="translate(0)">
        <g id="그룹_546" data-name="그룹 546" transform="translate(0)">
          <path id="패스_134" data-name="패스 134" class="cls-3" d="M13.757,5.152a1.53,1.53,0,0,0-1.123-.473H10.389V4.651a1.215,1.215,0,0,0-.365-.879,1.238,1.238,0,0,0-.879-.365H5.086A1.247,1.247,0,0,0,3.828,4.651v.027H1.6a1.53,1.53,0,0,0-1.123.473A1.608,1.608,0,0,0,0,6.275v6.737a1.53,1.53,0,0,0,.473,1.123,1.608,1.608,0,0,0,1.123.473H12.634a1.53,1.53,0,0,0,1.123-.473,1.608,1.608,0,0,0,.473-1.123V6.275A1.53,1.53,0,0,0,13.757,5.152Zm-.23,7.859h-.014a.878.878,0,0,1-.879.879H1.6a.878.878,0,0,1-.879-.879V6.275A.878.878,0,0,1,1.6,5.4H4.207a.364.364,0,0,0,.365-.365V4.638A.509.509,0,0,1,5.1,4.11H9.144a.509.509,0,0,1,.528.528V5.03a.364.364,0,0,0,.365.365h2.611a.878.878,0,0,1,.879.879Z" transform="translate(0 -3.407)"/>
          <path id="패스_135" data-name="패스 135" class="cls-3" d="M11.845,9.947a3.325,3.325,0,1,0,2.354.974A3.334,3.334,0,0,0,11.845,9.947Zm1.84,5.181a2.613,2.613,0,0,1-3.679,0,2.586,2.586,0,0,1-.758-1.84,2.644,2.644,0,0,1,.758-1.84,2.586,2.586,0,0,1,1.84-.758,2.644,2.644,0,0,1,1.84.758,2.586,2.586,0,0,1,.758,1.84A2.531,2.531,0,0,1,13.685,15.128Z" transform="translate(-4.729 -7.038)"/>
          <circle id="타원_157" data-name="타원 157" class="cls-3" cx="0.663" cy="0.663" r="0.663" transform="translate(11.268 2.895)"/>
        </g>
      </g>
    </g>
  </g>
</svg>
