<svg id="그룹_21820" data-name="그룹 21820" xmlns="http://www.w3.org/2000/svg" width="59.355" height="59.355" viewBox="0 0 59.355 59.355">
  <defs>
    <style>
      .cls-1 {
        fill: #ffd900;
      }

      .cls-2 {
        fill: #2a1617;
      }
    </style>
  </defs>
  <g id="그룹_417" data-name="그룹 417" transform="translate(0 0)">
    <circle id="스크린샷_2020-09-07_오전_10.33.17" data-name="스크린샷 2020-09-07 오전 10.33.17" class="cls-1" cx="29.677" cy="29.677" r="29.677"/>
  </g>
  <g id="그룹_21818" data-name="그룹 21818" transform="translate(16.817 18.548)">
    <path id="패스_9681" data-name="패스 9681" class="cls-2" d="M65.674,69.741c-7.1,0-12.862,4.552-12.862,10.168,0,3.655,2.439,6.859,6.1,8.651-.269,1-.974,3.638-1.115,4.2-.175.7.255.691.538.5.222-.148,3.524-2.394,4.95-3.363a16.255,16.255,0,0,0,2.388.176c7.1,0,12.862-4.552,12.862-10.168S72.778,69.741,65.674,69.741" transform="translate(-52.812 -69.741)"/>
  </g>
</svg>
