<svg xmlns="http://www.w3.org/2000/svg" width="45.779" height="46.828" viewBox="0 0 45.779 46.828">
  <defs>
    <style>
      .cls-1 {
        fill: none;
        stroke: #ccc;
        stroke-miterlimit: 10;
        stroke-width: 3px;
      }
    </style>
  </defs>
  <g id="그룹_21798" data-name="그룹 21798" transform="translate(-933.236 -422.5)">
    <path id="패스_9385" data-name="패스 9385" class="cls-1" d="M950.942,513.317v-6.767a13.387,13.387,0,0,0-2.85-8.256,18.612,18.612,0,0,1-3.954-11.493,18.96,18.96,0,0,1,37.762-2.275,11.6,11.6,0,0,0,.814,3.077l4.026,9.582a1.915,1.915,0,0,1-.184,1.822,1.948,1.948,0,0,1-1.636.848l-2.873-.038v7.714a1.936,1.936,0,0,1-1.944,1.928h-5.818a1.953,1.953,0,0,0-1.38.57,1.92,1.92,0,0,0-.564,1.373l.014,1.914" transform="translate(-9.402 -44)"/>
    <path id="패스_9386" data-name="패스 9386" class="cls-1" d="M1162.947,692c-2.471,3.984-2.947,4.457-2.947,5.746a2.95,2.95,0,1,0,5.894,0C1165.894,696.489,1165.506,696.128,1162.947,692Z" transform="translate(-199.079 -241.122)"/>
    <path id="패스_9387" data-name="패스 9387" class="cls-1" d="M1136,636a9.822,9.822,0,0,0,11.787,0" transform="translate(-178.044 -191.768)"/>
  </g>
</svg>
