<svg xmlns="http://www.w3.org/2000/svg" width="17" height="16" viewBox="0 0 17 16">
  <g id="calendar" transform="translate(0 -25)">
    <path id="패스_54" data-name="패스 54" d="M99.113,249H97.674a.674.674,0,0,0,0,1.349h1.438a.674.674,0,0,0,0-1.349Z" transform="translate(-93.936 -216.403)" fill="#888"/>
    <path id="패스_55" data-name="패스 55" d="M99.113,313H97.674a.674.674,0,1,0,0,1.349h1.438a.674.674,0,1,0,0-1.349Z" transform="translate(-93.936 -278.232)" fill="#888"/>
    <path id="패스_56" data-name="패스 56" d="M99.113,377H97.674a.674.674,0,1,0,0,1.349h1.438a.674.674,0,1,0,0-1.349Z" transform="translate(-93.936 -340.062)" fill="#888"/>
    <path id="패스_57" data-name="패스 57" d="M227.113,249h-1.438a.674.674,0,1,0,0,1.349h1.438a.674.674,0,0,0,0-1.349Z" transform="translate(-217.893 -216.403)" fill="#888"/>
    <path id="패스_58" data-name="패스 58" d="M227.113,313h-1.438a.674.674,0,1,0,0,1.349h1.438a.674.674,0,0,0,0-1.349Z" transform="translate(-217.893 -278.232)" fill="#888"/>
    <path id="패스_59" data-name="패스 59" d="M227.113,377h-1.438a.674.674,0,1,0,0,1.349h1.438a.674.674,0,0,0,0-1.349Z" transform="translate(-217.893 -340.062)" fill="#888"/>
    <path id="패스_60" data-name="패스 60" d="M355.113,249h-1.438a.674.674,0,0,0,0,1.349h1.438a.674.674,0,1,0,0-1.349Z" transform="translate(-341.851 -216.403)" fill="#888"/>
    <path id="패스_61" data-name="패스 61" d="M355.113,313h-1.438a.674.674,0,0,0,0,1.349h1.438a.674.674,0,1,0,0-1.349Z" transform="translate(-341.851 -278.232)" fill="#888"/>
    <path id="패스_62" data-name="패스 62" d="M355.113,377h-1.438a.674.674,0,1,0,0,1.349h1.438a.674.674,0,1,0,0-1.349Z" transform="translate(-341.851 -340.062)" fill="#888"/>
    <path id="패스_63" data-name="패스 63" d="M15.506,26.385h-1.2v-.866a.5.5,0,1,0-1,0v.866H9v-.866a.5.5,0,1,0-1,0v.866H3.686v-.866a.5.5,0,1,0-1,0v.866h-1.2A1.529,1.529,0,0,0,0,27.944v11.5A1.529,1.529,0,0,0,1.494,41H15.506A1.529,1.529,0,0,0,17,39.442v-11.5A1.529,1.529,0,0,0,15.506,26.385ZM1,27.944a.51.51,0,0,1,.5-.519h1.2v.866a.5.5,0,1,0,1,0v-.866H8v.866a.5.5,0,1,0,1,0v-.866h4.316v.866a.5.5,0,1,0,1,0v-.866h1.2a.51.51,0,0,1,.5.519v2.043H1Zm14.51,12.017H1.494a.51.51,0,0,1-.5-.519V31.026H16v8.416A.51.51,0,0,1,15.506,39.961Z" transform="translate(0 0)" fill="#888"/>
  </g>
</svg>
