<svg xmlns="http://www.w3.org/2000/svg" width="65.063" height="56.967" viewBox="0 0 65.063 56.967">
  <g id="그룹_21707" data-name="그룹 21707" transform="translate(-29.5 -110.5)">
    <path id="패스_7722" data-name="패스 7722" d="M80.92,160.571c2.7,4.048,6.746,5.4,12.143,5.4a14.938,14.938,0,0,1-4.048-9.444c0-2.577,1.255-5.721,2.226-7.906a23.3,23.3,0,0,0,1.821-9.633C93.063,124.089,79.179,112,62.031,112S31,124.089,31,138.984s13.883,26.984,31.031,26.984a35.7,35.7,0,0,0,13.492-2.7" transform="translate(0 0)" fill="none" stroke="#ebebeb" stroke-linecap="round" stroke-linejoin="round" stroke-width="3"/>
    <g id="그룹_21706" data-name="그룹 21706" transform="translate(48.539 129.539)">
      <g id="그룹_21705" data-name="그룹 21705">
        <path id="패스_7723" data-name="패스 7723" d="M52.1,125a4.048,4.048,0,0,1-8.1,0" transform="translate(-44 -125)" fill="none" stroke="#ebebeb" stroke-linecap="round" stroke-linejoin="round" stroke-width="3"/>
        <path id="패스_7724" data-name="패스 7724" d="M66.1,125a4.048,4.048,0,0,1-8.1,0" transform="translate(-39.111 -125)" fill="none" stroke="#ebebeb" stroke-linecap="round" stroke-linejoin="round" stroke-width="3"/>
      </g>
      <path id="패스_7725" data-name="패스 7725" d="M65.889,140.048a13.042,13.042,0,0,0-18.889,0" transform="translate(-42.952 -121.159)" fill="none" stroke="#ebebeb" stroke-linecap="round" stroke-linejoin="round" stroke-width="3"/>
    </g>
  </g>
</svg>
