<svg xmlns="http://www.w3.org/2000/svg" xmlns:xlink="http://www.w3.org/1999/xlink" width="16" height="16" viewBox="0 0 16 16">
  <defs>
    <clipPath id="clip-path">
      <path id="Clip_2" data-name="Clip 2" d="M0,16H16V0H0Z" fill="none"/>
    </clipPath>
  </defs>
  <g id="icon_44_000_设置" data-name="icon/44+#000/设置" transform="translate(-2 -2)">
    <path id="Clip_2-2" data-name="Clip 2" d="M0,16H16V0H0Z" transform="translate(2 2)" fill="none"/>
    <g id="마스크_그룹_5" data-name="마스크 그룹 5" transform="translate(2 2)" clip-path="url(#clip-path)">
      <path id="Fill_1" data-name="Fill 1" d="M9.354,15.522H6.166l-.524-1.816a6.176,6.176,0,0,1-.577-.24L3.4,14.375,1.146,12.121l.916-1.659c-.09-.188-.17-.381-.239-.573L0,9.354V6.166l1.819-.525c.069-.193.15-.388.24-.577L1.147,3.4,3.4,1.147l1.661.911c.188-.089.382-.17.577-.241L6.167,0H9.355l.529,1.817c.195.07.389.151.578.241l1.66-.911L14.375,3.4l-.913,1.664c.089.187.169.38.239.573l1.821.53V9.355l-1.821.53c-.07.195-.15.386-.237.57l.91,1.668-2.253,2.254-1.656-.915a6.251,6.251,0,0,1-.577.241l-.534,1.818Zm-4.412-3.28h0l.338.181a5.193,5.193,0,0,0,.94.391l.365.111v.337l.356,1.231H8.584l.354-1.2v-.364l.365-.111a5.19,5.19,0,0,0,.94-.391l.336-.18.24.24,1.122.62L13.1,11.939l-.6-1.1-.261-.261.18-.336a5.266,5.266,0,0,0,.391-.939l.111-.364h.352l1.218-.355V6.939l-1.218-.355h-.352l-.111-.364a5.258,5.258,0,0,0-.391-.939l-.18-.336.251-.251.61-1.112L11.94,2.419l-1.111.61-.248.252L10.242,3.1a5.218,5.218,0,0,0-.94-.392L8.937,2.6v-.35L8.582,1.028H6.939L6.584,2.247V2.6l-.365.111a5.2,5.2,0,0,0-.94.392l-.336.18L4.694,3.03,3.582,2.419,2.42,3.582l.61,1.112.251.25L3.1,5.281a5.3,5.3,0,0,0-.391.94L2.6,6.584H2.261L1.029,6.94V8.584l1.2.354H2.6l.111.364a5.308,5.308,0,0,0,.391.94l.179.336-.241.241L2.42,11.941,3.582,13.1l1.1-.6.258-.261Zm2.82-.826a3.655,3.655,0,1,1,2.584-1.07A3.632,3.632,0,0,1,7.761,11.415Zm0-6.28a2.626,2.626,0,1,0,2.626,2.626A2.629,2.629,0,0,0,7.761,5.135Z" transform="translate(0 0)" fill="#888"/>
    </g>
  </g>
</svg>
