<svg id="icon_44_000_账单" data-name="icon/44+#000/账单" xmlns="http://www.w3.org/2000/svg" xmlns:xlink="http://www.w3.org/1999/xlink" width="13" height="15" viewBox="0 0 13 15">
  <defs>
    <clipPath id="clip-path">
      <path id="Clip_6" data-name="Clip 6" d="M6.5,15H0V0H13V15Z" fill="none"/>
    </clipPath>
  </defs>
  <path id="Fill_1" data-name="Fill 1" d="M.342,1.114H7.626a.375.375,0,0,0,.342-.4V.4A.378.378,0,0,0,7.626,0H.342A.375.375,0,0,0,0,.4v.31a.378.378,0,0,0,.342.4" transform="translate(2.516 3.725)" fill="#888"/>
  <path id="Fill_3" data-name="Fill 3" d="M.39,1.114H7.157a.394.394,0,0,0,.39-.4V.4a.4.4,0,0,0-.39-.4H.39A.394.394,0,0,0,0,.4v.31a.4.4,0,0,0,.39.4" transform="translate(2.121 6.774)" fill="#888"/>
  <path id="Clip_6-2" data-name="Clip 6" d="M6.5,15H0V0H13V15Z" fill="none"/>
  <g id="마스크_그룹_1" data-name="마스크 그룹 1" clip-path="url(#clip-path)">
    <path id="Fill_5" data-name="Fill 5" d="M12.038,15H.708A.725.725,0,0,1,0,14.262V.739A.725.725,0,0,1,.708,0h11.33a.725.725,0,0,1,.708.739V14.262A.725.725,0,0,1,12.038,15ZM1.062,1.108V14.035H11.684V1.108Z" transform="translate(0 -0.001)" fill="#888"/>
    <path id="Fill_8" data-name="Fill 8" d="M.36,1.023H4.64A.364.364,0,0,0,5,.654V.369A.367.367,0,0,0,4.64,0H.36A.364.364,0,0,0,0,.369V.654a.367.367,0,0,0,.36.369" transform="translate(2.333 10.227)" fill="#888"/>
  </g>
</svg>
