<svg xmlns="http://www.w3.org/2000/svg" width="97.206" height="68.534" viewBox="0 0 97.206 68.534">
  <defs>
    <style>
      .cls-1, .cls-2 {
        fill: none;
        stroke: #ebebeb;
        stroke-linejoin: round;
        stroke-width: 3px;
      }

      .cls-1 {
        stroke-linecap: round;
      }
    </style>
  </defs>
  <g id="그룹_21710" data-name="그룹 21710" transform="translate(-263.5 46.674)">
    <path id="패스_7726" data-name="패스 7726" class="cls-1" d="M359.391-39.03c4.1-4.1,10.076-6.144,16.384-6.144,13.578,0,24.575,9.175,24.575,20.479a16.982,16.982,0,0,1-1.454,7.311,15.139,15.139,0,0,0-1.434,5.858,11.719,11.719,0,0,0,2.888,7.311,13.515,13.515,0,0,1-10.24-4.1" transform="translate(-41.144)"/>
    <path id="패스_7727" data-name="패스 7727" class="cls-1" d="M380.667,26.173a27.8,27.8,0,0,0,4.382.328,26.591,26.591,0,0,0,8.192-1.208" transform="translate(-50.418 -30.717)"/>
    <g id="그룹_21709" data-name="그룹 21709" transform="translate(265 -36.982)">
      <path id="패스_7728" data-name="패스 7728" class="cls-1" d="M283.432,24.643c4.4,1.823,9.38,2.048,14.336,2.048,18.1,0,32.767-12.841,32.767-28.671s-14.664-28.671-32.767-28.671S265-17.811,265-1.981a24.843,24.843,0,0,0,1.926,10.24,21.97,21.97,0,0,1,2.17,8.192,16.389,16.389,0,0,1-4.1,10.24q9.216,0,12.288-6.144" transform="translate(-265 30.652)"/>
      <g id="그룹_21708" data-name="그룹 21708" transform="translate(22.527 28.671)">
        <line id="선_163" data-name="선 163" class="cls-2" x2="4.096"/>
        <line id="선_164" data-name="선 164" class="cls-2" x2="4.096" transform="translate(8.192)"/>
        <line id="선_165" data-name="선 165" class="cls-2" x2="4.096" transform="translate(16.384)"/>
      </g>
    </g>
  </g>
</svg>
