<svg xmlns="http://www.w3.org/2000/svg" width="204" height="24.474" viewBox="0 0 204 24.474">
  <g id="그룹_21837" data-name="그룹 21837" transform="translate(-363 -46)">
    <g id="그룹_21836" data-name="그룹 21836" transform="translate(-20.85 -1495)">
      <g id="그룹_21679" data-name="그룹 21679" transform="translate(403.864 1541.367)">
        <path id="패스_7704" data-name="패스 7704" d="M410.919,1551.672v-10.255h-4.278v23.68h4.278v-9.414H420.5v-4.011Z" transform="translate(-406.641 -1541.418)" fill="#ccc"/>
        <path id="패스_7705" data-name="패스 7705" d="M424.074,1541.418v23.68h4.278v-23.68Z" transform="translate(-408.765 -1541.418)" fill="#ccc"/>
      </g>
      <path id="패스_7706" data-name="패스 7706" d="M490.446,1559.211a11.408,11.408,0,0,1-1.8,2.567,12.064,12.064,0,0,1-2.368,1.969,11.226,11.226,0,0,1-2.812,1.276,10.871,10.871,0,0,1-3.132.452,10.63,10.63,0,0,1-4.492-.969,11.793,11.793,0,0,1-3.682-2.632,12.525,12.525,0,0,1-2.49-3.891,12.742,12.742,0,0,1,0-9.492,12.554,12.554,0,0,1,2.49-3.892,11.8,11.8,0,0,1,3.682-2.631,10.627,10.627,0,0,1,4.492-.969,10.888,10.888,0,0,1,3.132.452,11.25,11.25,0,0,1,2.812,1.275,12.12,12.12,0,0,1,2.368,1.97,11.763,11.763,0,0,1,1.8,2.534l-4,1.712a8.958,8.958,0,0,0-1.146-1.453,8.459,8.459,0,0,0-1.451-1.2,7.207,7.207,0,0,0-1.682-.806,5.841,5.841,0,0,0-1.833-.292,6.317,6.317,0,0,0-2.858.663,7.6,7.6,0,0,0-2.307,1.76,8.512,8.512,0,0,0-1.558,2.567,8.341,8.341,0,0,0,0,6.119,8.56,8.56,0,0,0,1.558,2.551,7.587,7.587,0,0,0,2.307,1.76,6.317,6.317,0,0,0,2.858.663,5.861,5.861,0,0,0,1.833-.291,7.239,7.239,0,0,0,1.682-.807,8.036,8.036,0,0,0,1.451-1.211,9.607,9.607,0,0,0,1.146-1.47Z" transform="translate(-10.343 0)" fill="#ccc"/>
      <path id="패스_7707" data-name="패스 7707" d="M604.426,1556.064a6.488,6.488,0,0,0-1.055-1.711,5.123,5.123,0,0,0-1.451-1.178,4.133,4.133,0,0,0-1.635-.5,2.694,2.694,0,0,0,1.467-.5,4.605,4.605,0,0,0,1.146-1.151,5.972,5.972,0,0,0,.748-1.493,4.751,4.751,0,0,0,.276-1.525,8.869,8.869,0,0,0-.52-3.293,4.719,4.719,0,0,0-3.484-3.017,11.212,11.212,0,0,0-2.536-.276h-9.839v23.68h10.328a9.987,9.987,0,0,0,2.7-.355,5.447,5.447,0,0,0,3.712-3.339,8.622,8.622,0,0,0,.55-3.275A5.211,5.211,0,0,0,604.426,1556.064Zm-4.079,2.968a3.952,3.952,0,0,1-.581,1.035,2.849,2.849,0,0,1-.856.744,2.082,2.082,0,0,1-1.039.275h-6.051v-15.657h5.561a1.776,1.776,0,0,1,.871.228,2.562,2.562,0,0,1,.718.586,2.93,2.93,0,0,1,.672,1.855,3.521,3.521,0,0,1-.169,1.057,3.1,3.1,0,0,1-.488.959,2.477,2.477,0,0,1-.794.683,2.284,2.284,0,0,1-1.115.26h-3.6v4.012h3.931a3.189,3.189,0,0,1,2.307.809,2.673,2.673,0,0,1,.84,2.006A3.235,3.235,0,0,1,600.347,1559.032Z" transform="translate(-24.815 -0.051)" fill="#ccc"/>
      <circle id="타원_330" data-name="타원 330" cx="2.673" cy="2.673" r="2.673" transform="translate(582.504 1559.658)" fill="#ccc"/>
      <g id="그룹_21680" data-name="그룹 21680" transform="translate(428.31 1541.367)">
        <path id="패스_7708" data-name="패스 7708" d="M450.948,1541.418h-16.47v23.68h16.47v-4.076H438.756v-15.592h12.192Z" transform="translate(-434.478 -1541.418)" fill="#ccc"/>
        <rect id="사각형_24841" data-name="사각형 24841" width="9.352" height="3.881" transform="translate(5.743 9.838)" fill="#ccc"/>
      </g>
      <g id="그룹_21681" data-name="그룹 21681" transform="translate(483.403 1541.367)">
        <path id="패스_7709" data-name="패스 7709" d="M513.684,1541.418h-16.47v23.68h16.47v-4.076H501.492v-15.592h12.192Z" transform="translate(-497.214 -1541.418)" fill="#ccc"/>
        <rect id="사각형_24842" data-name="사각형 24842" width="9.352" height="3.881" transform="translate(5.743 9.838)" fill="#ccc"/>
      </g>
      <g id="그룹_21682" data-name="그룹 21682" transform="translate(541.857 1541.367)">
        <path id="패스_7710" data-name="패스 7710" d="M580.247,1541.418h-16.47v23.68h16.47v-4.076H568.055v-15.592h12.192Z" transform="translate(-563.777 -1541.418)" fill="#ccc"/>
        <rect id="사각형_24843" data-name="사각형 24843" width="9.352" height="3.881" transform="translate(5.743 9.838)" fill="#ccc"/>
      </g>
      <g id="그룹_21683" data-name="그룹 21683" transform="translate(504.273 1541.367)">
        <rect id="사각형_24844" data-name="사각형 24844" width="10.566" height="3.789" transform="translate(5.538 19.891)" fill="#ccc"/>
        <rect id="사각형_24845" data-name="사각형 24845" width="4.278" height="23.68" fill="#ccc"/>
      </g>
      <g id="그룹_21684" data-name="그룹 21684" transform="translate(523.065 1541.367)">
        <rect id="사각형_24846" data-name="사각형 24846" width="10.566" height="3.789" transform="translate(5.538 19.891)" fill="#ccc"/>
        <rect id="사각형_24847" data-name="사각형 24847" width="4.278" height="23.68" fill="#ccc"/>
      </g>
      <g id="그룹_21685" data-name="그룹 21685" transform="translate(383.85 1541.367)">
        <rect id="사각형_24848" data-name="사각형 24848" width="5.116" height="3.789" transform="translate(11.966)" fill="#ccc"/>
        <path id="패스_7711" data-name="패스 7711" d="M394.551,1541.418h-10.7v4.011h6.417V1565.1h4.284Z" transform="translate(-383.85 -1541.418)" fill="#ccc"/>
      </g>
    </g>
  </g>
</svg>
